<svg width="20" height="20" viewBox="0 0 20 20" fill="none" xmlns="http://www.w3.org/2000/svg">
<path d="M10 0C4.47916 0 0 4.4792 0 10C0 15.5208 4.47916 20 10 20C15.5208 20 20 15.5208 20 10C20 4.47916 15.5208 0 10 0ZM17.217 15.7053C16.3167 15.1836 15.3017 14.8012 14.2913 14.5353C14.5959 13.2649 14.7692 11.8598 14.796 10.4H19.1912C19.107 12.3309 18.4156 14.1902 17.217 15.7053V15.7053ZM2.78308 15.7053C1.5844 14.1902 0.893 12.3309 0.80884 10.4H5.204C5.2308 11.8598 5.40412 13.2649 5.70868 14.5353C4.69084 14.8081 3.70192 15.1721 2.78308 15.7053V15.7053ZM2.78304 4.29468C3.68012 4.81372 4.6864 5.19548 5.70868 5.46472C5.40408 6.73512 5.2308 8.14016 5.204 9.6H0.80884C0.893 7.66904 1.5844 5.80984 2.78304 4.29468ZM10.4 14.0048V10.4H13.9959C13.9694 11.8 13.8036 13.143 13.5132 14.3525C12.5628 14.1545 11.5056 14.0295 10.4 14.0048ZM6.48676 14.3525C6.19636 13.143 6.0306 11.8 6.00408 10.4H9.6V14.0048C8.50772 14.0292 7.45736 14.1506 6.48676 14.3525ZM9.6 5.99516V9.6H6.00408C6.0306 8.20004 6.19636 6.857 6.48676 5.64752C7.46088 5.84928 8.499 5.9706 9.6 5.99516ZM10.4 9.6V5.99516C11.4754 5.97116 12.5204 5.85348 13.5132 5.64752C13.8037 6.857 13.9694 8.20004 13.9959 9.6H10.4ZM10.4 5.19496V0.85068C11.2592 1.06516 12.0973 1.95956 12.7476 3.37844C12.9589 3.83932 13.145 4.34088 13.3052 4.87468C12.3476 5.06996 11.3652 5.17324 10.4 5.19496ZM9.6 0.85068V5.19496C8.61416 5.17276 7.6316 5.06588 6.69484 4.87468C6.85496 4.34088 7.04112 3.83932 7.25236 3.37844C7.90268 1.95952 8.7408 1.06512 9.6 0.85068V0.85068ZM9.6 14.805V19.1493C8.7408 18.9348 7.90268 18.0404 7.25236 16.6216C7.04112 16.1607 6.85496 15.6591 6.69484 15.1253C7.63728 14.934 8.6092 14.8274 9.6 14.805V14.805ZM10.4 19.1493V14.805C11.437 14.8284 12.4012 14.9417 13.3052 15.1253C13.145 15.6592 12.9589 16.1607 12.7476 16.6216C12.0973 18.0405 11.2592 18.9348 10.4 19.1493V19.1493ZM14.796 9.6C14.7692 8.14016 14.5959 6.73512 14.2913 5.46472C15.3036 5.19676 16.315 4.81784 17.217 4.29468C18.4156 5.80984 19.107 7.66904 19.1912 9.6H14.796ZM16.6826 3.67764C15.8773 4.12656 14.9878 4.4556 14.0853 4.69324C13.711 3.42764 13.1038 2.0208 12.1922 1.06512C13.8966 1.48296 15.4575 2.38284 16.6826 3.67764V3.67764ZM7.80772 1.06512C6.89608 2.0208 6.289 3.42768 5.91464 4.69324C5.01664 4.45692 4.1288 4.12928 3.31732 3.67764C4.54252 2.38284 6.10332 1.48296 7.80772 1.06512ZM3.31736 16.3224C4.13432 15.8685 5.01768 15.5418 5.91468 15.3068C6.28904 16.5722 6.89612 17.9792 7.80776 18.9348C6.10328 18.517 4.54252 17.6172 3.31736 16.3224ZM12.1922 18.9349C13.1028 17.9804 13.7102 16.5748 14.0854 15.3068C14.9722 15.5395 15.8686 15.8692 16.6827 16.3224C15.4575 17.6172 13.8967 18.517 12.1922 18.9349V18.9349Z" fill="white"/>
</svg>
